<mxfile host="app.diagrams.net" modified="2023-12-31T10:35:32.162Z" agent="Mozilla/5.0 (Windows NT 10.0; Win64; x64) AppleWebKit/537.36 (KHTML, like Gecko) Chrome/118.0.0.0 YaBrowser/23.11.0.0 Safari/537.36" etag="GjyZ9CyIl9j6SzIx6WIK" version="22.1.16" type="device">
  <diagram name="Страница — 1" id="bZmspCDpgWaU5O7749uH">
    <mxGraphModel dx="1050" dy="663" grid="1" gridSize="10" guides="1" tooltips="1" connect="1" arrows="1" fold="1" page="1" pageScale="1" pageWidth="827" pageHeight="1169" math="0" shadow="0">
      <root>
        <mxCell id="0" />
        <mxCell id="1" parent="0" />
        <mxCell id="STmklHQuZMBpxZCf-er4-11" style="edgeStyle=orthogonalEdgeStyle;rounded=0;orthogonalLoop=1;jettySize=auto;html=1;dashed=1;" edge="1" parent="1" source="STmklHQuZMBpxZCf-er4-1">
          <mxGeometry relative="1" as="geometry">
            <mxPoint x="420" y="1204.800048828125" as="targetPoint" />
          </mxGeometry>
        </mxCell>
        <mxCell id="w6uq6F4qVqXZqj7FnJKZ-1" value="" style="html=1;points=[];perimeter=orthogonalPerimeter;rounded=0;shadow=0;comic=0;labelBackgroundColor=none;strokeWidth=1;fontFamily=Verdana;fontSize=12;align=center;" parent="1" vertex="1">
          <mxGeometry x="415" y="290" width="10" height="860" as="geometry" />
        </mxCell>
        <mxCell id="w6uq6F4qVqXZqj7FnJKZ-2" value="" style="endArrow=classic;html=1;rounded=0;" parent="1" edge="1">
          <mxGeometry width="50" height="50" relative="1" as="geometry">
            <mxPoint x="420.19000000000005" y="630" as="sourcePoint" />
            <mxPoint x="415.00034482758633" y="670" as="targetPoint" />
            <Array as="points">
              <mxPoint x="455.19000000000005" y="630" />
              <mxPoint x="455.19000000000005" y="670" />
            </Array>
          </mxGeometry>
        </mxCell>
        <mxCell id="w6uq6F4qVqXZqj7FnJKZ-3" value="Генерация пароля" style="edgeLabel;html=1;align=center;verticalAlign=middle;resizable=0;points=[];" parent="w6uq6F4qVqXZqj7FnJKZ-2" vertex="1" connectable="0">
          <mxGeometry x="-0.0376" y="1" relative="1" as="geometry">
            <mxPoint x="44" as="offset" />
          </mxGeometry>
        </mxCell>
        <mxCell id="w6uq6F4qVqXZqj7FnJKZ-4" value="" style="endArrow=classic;html=1;rounded=0;" parent="1" edge="1">
          <mxGeometry width="50" height="50" relative="1" as="geometry">
            <mxPoint x="420.19000000000005" y="680" as="sourcePoint" />
            <mxPoint x="415.00034482758633" y="720" as="targetPoint" />
            <Array as="points">
              <mxPoint x="455.19000000000005" y="680" />
              <mxPoint x="455.19000000000005" y="720" />
            </Array>
          </mxGeometry>
        </mxCell>
        <mxCell id="w6uq6F4qVqXZqj7FnJKZ-5" value="Сверка со слитыми паролями" style="edgeLabel;html=1;align=center;verticalAlign=middle;resizable=0;points=[];" parent="w6uq6F4qVqXZqj7FnJKZ-4" vertex="1" connectable="0">
          <mxGeometry x="-0.0376" y="1" relative="1" as="geometry">
            <mxPoint x="64" as="offset" />
          </mxGeometry>
        </mxCell>
        <mxCell id="w6uq6F4qVqXZqj7FnJKZ-6" value="" style="endArrow=classic;html=1;rounded=0;" parent="1" edge="1">
          <mxGeometry width="50" height="50" relative="1" as="geometry">
            <mxPoint x="420.19000000000005" y="1040" as="sourcePoint" />
            <mxPoint x="415.00034482758633" y="1080" as="targetPoint" />
            <Array as="points">
              <mxPoint x="455.19000000000005" y="1040" />
              <mxPoint x="455.19000000000005" y="1080" />
            </Array>
          </mxGeometry>
        </mxCell>
        <mxCell id="w6uq6F4qVqXZqj7FnJKZ-7" value="Вывод изменённой странички" style="edgeLabel;html=1;align=center;verticalAlign=middle;resizable=0;points=[];" parent="w6uq6F4qVqXZqj7FnJKZ-6" vertex="1" connectable="0">
          <mxGeometry x="-0.0376" y="1" relative="1" as="geometry">
            <mxPoint x="64" as="offset" />
          </mxGeometry>
        </mxCell>
        <mxCell id="w6uq6F4qVqXZqj7FnJKZ-8" value="БД паролей" style="shape=umlLifeline;perimeter=lifelinePerimeter;whiteSpace=wrap;html=1;container=1;collapsible=0;recursiveResize=0;outlineConnect=0;rounded=1;shadow=0;comic=0;labelBackgroundColor=none;strokeWidth=1;fontFamily=Verdana;fontSize=12;align=center;" parent="1" vertex="1">
          <mxGeometry x="610" y="220" width="110" height="820" as="geometry" />
        </mxCell>
        <mxCell id="w6uq6F4qVqXZqj7FnJKZ-9" value="" style="html=1;points=[];perimeter=orthogonalPerimeter;rounded=0;shadow=0;comic=0;labelBackgroundColor=none;strokeWidth=1;fontFamily=Verdana;fontSize=12;align=center;" parent="w6uq6F4qVqXZqj7FnJKZ-8" vertex="1">
          <mxGeometry x="50" y="115" width="10" height="125" as="geometry" />
        </mxCell>
        <mxCell id="w6uq6F4qVqXZqj7FnJKZ-10" value="" style="html=1;points=[];perimeter=orthogonalPerimeter;rounded=0;shadow=0;comic=0;labelBackgroundColor=none;strokeWidth=1;fontFamily=Verdana;fontSize=12;align=center;" parent="w6uq6F4qVqXZqj7FnJKZ-8" vertex="1">
          <mxGeometry x="50" y="670" width="10" height="140" as="geometry" />
        </mxCell>
        <mxCell id="w6uq6F4qVqXZqj7FnJKZ-11" value="" style="endArrow=classic;html=1;rounded=0;exitX=1.067;exitY=0.87;exitDx=0;exitDy=0;exitPerimeter=0;" parent="w6uq6F4qVqXZqj7FnJKZ-8" target="w6uq6F4qVqXZqj7FnJKZ-10" edge="1">
          <mxGeometry width="50" height="50" relative="1" as="geometry">
            <mxPoint x="-190" y="707.2099999999999" as="sourcePoint" />
            <mxPoint x="113.82999999999993" y="707.2099999999999" as="targetPoint" />
          </mxGeometry>
        </mxCell>
        <mxCell id="w6uq6F4qVqXZqj7FnJKZ-12" value="Запись в БД" style="edgeLabel;html=1;align=center;verticalAlign=middle;resizable=0;points=[];" parent="w6uq6F4qVqXZqj7FnJKZ-11" vertex="1" connectable="0">
          <mxGeometry x="-0.1359" y="2" relative="1" as="geometry">
            <mxPoint x="3" y="-2" as="offset" />
          </mxGeometry>
        </mxCell>
        <mxCell id="w6uq6F4qVqXZqj7FnJKZ-13" value="" style="endArrow=classic;html=1;rounded=0;" parent="w6uq6F4qVqXZqj7FnJKZ-8" edge="1">
          <mxGeometry width="50" height="50" relative="1" as="geometry">
            <mxPoint x="55.190000000000055" y="725" as="sourcePoint" />
            <mxPoint x="50.00034482758633" y="765" as="targetPoint" />
            <Array as="points">
              <mxPoint x="90.19000000000005" y="725" />
              <mxPoint x="90.19000000000005" y="765" />
            </Array>
          </mxGeometry>
        </mxCell>
        <mxCell id="w6uq6F4qVqXZqj7FnJKZ-14" value="Запись" style="edgeLabel;html=1;align=center;verticalAlign=middle;resizable=0;points=[];" parent="w6uq6F4qVqXZqj7FnJKZ-13" vertex="1" connectable="0">
          <mxGeometry x="-0.0376" y="1" relative="1" as="geometry">
            <mxPoint x="9" as="offset" />
          </mxGeometry>
        </mxCell>
        <mxCell id="w6uq6F4qVqXZqj7FnJKZ-15" value="" style="endArrow=classic;html=1;rounded=0;dashed=1;" parent="w6uq6F4qVqXZqj7FnJKZ-8" edge="1">
          <mxGeometry width="50" height="50" relative="1" as="geometry">
            <mxPoint x="50" y="790.1600000000001" as="sourcePoint" />
            <mxPoint x="-190" y="790" as="targetPoint" />
            <Array as="points" />
          </mxGeometry>
        </mxCell>
        <mxCell id="w6uq6F4qVqXZqj7FnJKZ-16" value="Сообщение об успехе операции" style="edgeLabel;html=1;align=center;verticalAlign=middle;resizable=0;points=[];" parent="w6uq6F4qVqXZqj7FnJKZ-15" vertex="1" connectable="0">
          <mxGeometry x="0.1345" relative="1" as="geometry">
            <mxPoint as="offset" />
          </mxGeometry>
        </mxCell>
        <mxCell id="w6uq6F4qVqXZqj7FnJKZ-17" value="Пользователь" style="shape=umlLifeline;perimeter=lifelinePerimeter;whiteSpace=wrap;html=1;container=1;collapsible=0;recursiveResize=0;outlineConnect=0;rounded=1;shadow=0;comic=0;labelBackgroundColor=none;strokeWidth=1;fontFamily=Verdana;fontSize=12;align=center;" parent="1" vertex="1">
          <mxGeometry x="60" y="220" width="100" height="920" as="geometry" />
        </mxCell>
        <mxCell id="w6uq6F4qVqXZqj7FnJKZ-18" value="" style="html=1;points=[];perimeter=orthogonalPerimeter;rounded=0;shadow=0;comic=0;labelBackgroundColor=none;strokeWidth=1;fontFamily=Verdana;fontSize=12;align=center;" parent="w6uq6F4qVqXZqj7FnJKZ-17" vertex="1">
          <mxGeometry x="45" y="100" width="10" height="540" as="geometry" />
        </mxCell>
        <mxCell id="w6uq6F4qVqXZqj7FnJKZ-19" value="Запрос на генерацию пароля" style="html=1;verticalAlign=bottom;endArrow=block;labelBackgroundColor=none;fontFamily=Verdana;fontSize=12;edgeStyle=elbowEdgeStyle;elbow=vertical;" parent="w6uq6F4qVqXZqj7FnJKZ-17" edge="1">
          <mxGeometry relative="1" as="geometry">
            <mxPoint x="55" y="390" as="sourcePoint" />
            <mxPoint x="359.5" y="390" as="targetPoint" />
            <Array as="points">
              <mxPoint x="210" y="390" />
            </Array>
          </mxGeometry>
        </mxCell>
        <mxCell id="w6uq6F4qVqXZqj7FnJKZ-20" value="" style="endArrow=classic;html=1;rounded=0;" parent="w6uq6F4qVqXZqj7FnJKZ-17" edge="1">
          <mxGeometry width="50" height="50" relative="1" as="geometry">
            <mxPoint x="60.190000000000055" y="550" as="sourcePoint" />
            <mxPoint x="55.00034482758633" y="590" as="targetPoint" />
            <Array as="points">
              <mxPoint x="95.19000000000005" y="550" />
              <mxPoint x="95.19000000000005" y="590" />
            </Array>
          </mxGeometry>
        </mxCell>
        <mxCell id="w6uq6F4qVqXZqj7FnJKZ-21" value="Заполнение формы" style="edgeLabel;html=1;align=center;verticalAlign=middle;resizable=0;points=[];" parent="w6uq6F4qVqXZqj7FnJKZ-20" vertex="1" connectable="0">
          <mxGeometry x="-0.0376" y="1" relative="1" as="geometry">
            <mxPoint x="39" as="offset" />
          </mxGeometry>
        </mxCell>
        <mxCell id="w6uq6F4qVqXZqj7FnJKZ-22" value="" style="html=1;points=[];perimeter=orthogonalPerimeter;rounded=0;shadow=0;comic=0;labelBackgroundColor=none;strokeWidth=1;fontFamily=Verdana;fontSize=12;align=center;" parent="w6uq6F4qVqXZqj7FnJKZ-17" vertex="1">
          <mxGeometry x="45" y="850" width="10" height="60" as="geometry" />
        </mxCell>
        <mxCell id="w6uq6F4qVqXZqj7FnJKZ-23" value="Показ главной страницы" style="text;html=1;align=center;verticalAlign=middle;resizable=0;points=[];autosize=1;strokeColor=none;fillColor=none;" parent="1" vertex="1">
          <mxGeometry x="185.6300000000001" y="465" width="160" height="30" as="geometry" />
        </mxCell>
        <mxCell id="w6uq6F4qVqXZqj7FnJKZ-24" value="" style="endArrow=classic;html=1;rounded=0;" parent="1" edge="1">
          <mxGeometry width="50" height="50" relative="1" as="geometry">
            <mxPoint x="115" y="335" as="sourcePoint" />
            <mxPoint x="420" y="335" as="targetPoint" />
          </mxGeometry>
        </mxCell>
        <mxCell id="w6uq6F4qVqXZqj7FnJKZ-25" value="Авторизация пользователя" style="edgeLabel;html=1;align=center;verticalAlign=middle;resizable=0;points=[];" parent="w6uq6F4qVqXZqj7FnJKZ-24" vertex="1" connectable="0">
          <mxGeometry x="-0.1163" relative="1" as="geometry">
            <mxPoint x="1" as="offset" />
          </mxGeometry>
        </mxCell>
        <mxCell id="w6uq6F4qVqXZqj7FnJKZ-26" value="" style="endArrow=classic;html=1;rounded=0;" parent="1" target="w6uq6F4qVqXZqj7FnJKZ-8" edge="1">
          <mxGeometry width="50" height="50" relative="1" as="geometry">
            <mxPoint x="419" y="355" as="sourcePoint" />
            <mxPoint x="510" y="365" as="targetPoint" />
            <Array as="points">
              <mxPoint x="540" y="355" />
            </Array>
          </mxGeometry>
        </mxCell>
        <mxCell id="w6uq6F4qVqXZqj7FnJKZ-27" value="Отправление запроса на проверку" style="edgeLabel;html=1;align=center;verticalAlign=middle;resizable=0;points=[];" parent="w6uq6F4qVqXZqj7FnJKZ-26" vertex="1" connectable="0">
          <mxGeometry x="0.0276" y="-2" relative="1" as="geometry">
            <mxPoint as="offset" />
          </mxGeometry>
        </mxCell>
        <mxCell id="w6uq6F4qVqXZqj7FnJKZ-28" value="" style="endArrow=classic;html=1;rounded=0;dashed=1;" parent="1" edge="1">
          <mxGeometry width="50" height="50" relative="1" as="geometry">
            <mxPoint x="660" y="445.1600000000001" as="sourcePoint" />
            <mxPoint x="419" y="445" as="targetPoint" />
            <Array as="points" />
          </mxGeometry>
        </mxCell>
        <mxCell id="w6uq6F4qVqXZqj7FnJKZ-29" value="Подтверждение авторизации" style="edgeLabel;html=1;align=center;verticalAlign=middle;resizable=0;points=[];" parent="w6uq6F4qVqXZqj7FnJKZ-28" vertex="1" connectable="0">
          <mxGeometry x="0.1345" relative="1" as="geometry">
            <mxPoint as="offset" />
          </mxGeometry>
        </mxCell>
        <mxCell id="w6uq6F4qVqXZqj7FnJKZ-30" value="" style="edgeStyle=none;orthogonalLoop=1;jettySize=auto;html=1;rounded=0;dashed=1;" parent="1" edge="1">
          <mxGeometry width="100" relative="1" as="geometry">
            <mxPoint x="415.1300000000001" y="485" as="sourcePoint" />
            <mxPoint x="104.88000000000022" y="485" as="targetPoint" />
            <Array as="points" />
          </mxGeometry>
        </mxCell>
        <mxCell id="w6uq6F4qVqXZqj7FnJKZ-31" value="Запрос на добавление записи" style="html=1;verticalAlign=bottom;endArrow=block;labelBackgroundColor=none;fontFamily=Verdana;fontSize=12;edgeStyle=elbowEdgeStyle;elbow=vertical;" parent="1" target="w6uq6F4qVqXZqj7FnJKZ-1" edge="1">
          <mxGeometry relative="1" as="geometry">
            <mxPoint x="110.5" y="535" as="sourcePoint" />
            <mxPoint x="415" y="535" as="targetPoint" />
            <Array as="points">
              <mxPoint x="265.5" y="535" />
            </Array>
          </mxGeometry>
        </mxCell>
        <mxCell id="w6uq6F4qVqXZqj7FnJKZ-32" value="" style="edgeStyle=none;orthogonalLoop=1;jettySize=auto;html=1;rounded=0;" parent="1" edge="1">
          <mxGeometry width="100" relative="1" as="geometry">
            <mxPoint x="664.810344827586" y="370" as="sourcePoint" />
            <mxPoint x="664.810344827586" y="420" as="targetPoint" />
            <Array as="points">
              <mxPoint x="800" y="370" />
              <mxPoint x="800" y="420" />
            </Array>
          </mxGeometry>
        </mxCell>
        <mxCell id="w6uq6F4qVqXZqj7FnJKZ-33" value="Проверка пароля/логина" style="edgeLabel;html=1;align=center;verticalAlign=middle;resizable=0;points=[];" parent="w6uq6F4qVqXZqj7FnJKZ-32" vertex="1" connectable="0">
          <mxGeometry x="-0.0227" y="-1" relative="1" as="geometry">
            <mxPoint as="offset" />
          </mxGeometry>
        </mxCell>
        <mxCell id="w6uq6F4qVqXZqj7FnJKZ-34" value="&lt;font style=&quot;font-size: 22px;&quot;&gt;&lt;b&gt;ДИАГРАММА ПОСЛЕДОВАТЕЛЬНОСТИ&lt;/b&gt;&lt;/font&gt;" style="text;html=1;strokeColor=none;fillColor=none;align=center;verticalAlign=middle;whiteSpace=wrap;rounded=0;" parent="1" vertex="1">
          <mxGeometry x="100" y="40" width="640" height="160" as="geometry" />
        </mxCell>
        <mxCell id="w6uq6F4qVqXZqj7FnJKZ-35" value="" style="endArrow=classic;html=1;rounded=0;" parent="1" target="w6uq6F4qVqXZqj7FnJKZ-18" edge="1">
          <mxGeometry width="50" height="50" relative="1" as="geometry">
            <mxPoint x="415" y="570" as="sourcePoint" />
            <mxPoint x="110.67000000000007" y="570.0000000000001" as="targetPoint" />
          </mxGeometry>
        </mxCell>
        <mxCell id="w6uq6F4qVqXZqj7FnJKZ-36" value="Отправка формы для заполнения" style="edgeLabel;html=1;align=center;verticalAlign=middle;resizable=0;points=[];" parent="w6uq6F4qVqXZqj7FnJKZ-35" vertex="1" connectable="0">
          <mxGeometry x="-0.1359" y="2" relative="1" as="geometry">
            <mxPoint x="-25" y="-2" as="offset" />
          </mxGeometry>
        </mxCell>
        <mxCell id="w6uq6F4qVqXZqj7FnJKZ-37" value="" style="endArrow=classic;html=1;rounded=0;exitX=1.067;exitY=0.87;exitDx=0;exitDy=0;exitPerimeter=0;" parent="1" edge="1">
          <mxGeometry width="50" height="50" relative="1" as="geometry">
            <mxPoint x="111.17000000000007" y="839.9999999999999" as="sourcePoint" />
            <mxPoint x="415" y="839.9999999999999" as="targetPoint" />
          </mxGeometry>
        </mxCell>
        <mxCell id="w6uq6F4qVqXZqj7FnJKZ-38" value="Отправка заполненной формы" style="edgeLabel;html=1;align=center;verticalAlign=middle;resizable=0;points=[];" parent="w6uq6F4qVqXZqj7FnJKZ-37" vertex="1" connectable="0">
          <mxGeometry x="-0.1359" y="2" relative="1" as="geometry">
            <mxPoint x="3" y="-2" as="offset" />
          </mxGeometry>
        </mxCell>
        <mxCell id="w6uq6F4qVqXZqj7FnJKZ-39" value="" style="endArrow=classic;html=1;rounded=0;" parent="1" edge="1">
          <mxGeometry width="50" height="50" relative="1" as="geometry">
            <mxPoint x="415" y="750" as="sourcePoint" />
            <mxPoint x="115" y="750" as="targetPoint" />
          </mxGeometry>
        </mxCell>
        <mxCell id="w6uq6F4qVqXZqj7FnJKZ-40" value="Отправка пароля" style="edgeLabel;html=1;align=center;verticalAlign=middle;resizable=0;points=[];" parent="w6uq6F4qVqXZqj7FnJKZ-39" vertex="1" connectable="0">
          <mxGeometry x="-0.1359" y="2" relative="1" as="geometry">
            <mxPoint x="-25" y="-2" as="offset" />
          </mxGeometry>
        </mxCell>
        <mxCell id="w6uq6F4qVqXZqj7FnJKZ-41" value="" style="endArrow=classic;html=1;rounded=0;" parent="1" edge="1">
          <mxGeometry width="50" height="50" relative="1" as="geometry">
            <mxPoint x="425.19000000000005" y="850" as="sourcePoint" />
            <mxPoint x="420.00034482758633" y="890" as="targetPoint" />
            <Array as="points">
              <mxPoint x="460.19000000000005" y="850" />
              <mxPoint x="460.19000000000005" y="890" />
            </Array>
          </mxGeometry>
        </mxCell>
        <mxCell id="w6uq6F4qVqXZqj7FnJKZ-42" value="Проверка на валидность данных" style="edgeLabel;html=1;align=center;verticalAlign=middle;resizable=0;points=[];" parent="w6uq6F4qVqXZqj7FnJKZ-41" vertex="1" connectable="0">
          <mxGeometry x="-0.0376" y="1" relative="1" as="geometry">
            <mxPoint x="64" as="offset" />
          </mxGeometry>
        </mxCell>
        <mxCell id="w6uq6F4qVqXZqj7FnJKZ-43" value="" style="endArrow=classic;html=1;rounded=0;dashed=1;" parent="1" target="w6uq6F4qVqXZqj7FnJKZ-17" edge="1">
          <mxGeometry width="50" height="50" relative="1" as="geometry">
            <mxPoint x="420" y="1100.16" as="sourcePoint" />
            <mxPoint x="180" y="1100" as="targetPoint" />
            <Array as="points" />
          </mxGeometry>
        </mxCell>
        <mxCell id="w6uq6F4qVqXZqj7FnJKZ-44" value="Отправка страницы" style="edgeLabel;html=1;align=center;verticalAlign=middle;resizable=0;points=[];" parent="w6uq6F4qVqXZqj7FnJKZ-43" vertex="1" connectable="0">
          <mxGeometry x="0.1345" relative="1" as="geometry">
            <mxPoint as="offset" />
          </mxGeometry>
        </mxCell>
        <mxCell id="STmklHQuZMBpxZCf-er4-1" value="Приложение" style="rounded=1;whiteSpace=wrap;html=1;" vertex="1" parent="1">
          <mxGeometry x="360" y="220" width="120" height="40" as="geometry" />
        </mxCell>
      </root>
    </mxGraphModel>
  </diagram>
</mxfile>
